<svg width="186" height="202" viewBox="0 0 186 202" fill="none" xmlns="http://www.w3.org/2000/svg">
<path d="M124.211 68.5459C123.512 67.8472 122.564 67.4546 121.576 67.4546C121.575 67.4546 121.575 67.4546 121.575 67.4546L117.848 67.4559V71.1832V74.9105V127.091V130.818V134.546H121.576C123.634 134.546 125.303 132.877 125.303 130.818V71.1819C125.303 70.1931 124.91 69.245 124.211 68.5459Z" fill="black"/>
<path d="M124.211 68.5459C123.512 67.8472 122.564 67.4546 121.576 67.4546C121.575 67.4546 121.575 67.4546 121.575 67.4546L117.848 67.4559V71.1832V74.9105V127.091V130.818V134.546H121.576C123.634 134.546 125.303 132.877 125.303 130.818V71.1819C125.303 70.1931 124.91 69.245 124.211 68.5459Z" fill="url(#paint0_linear)"/>
<path d="M109.062 60.8717C108.218 60.1635 107.104 59.8648 106.019 60.057L63.7765 67.516C61.9954 67.8303 60.697 69.3779 60.697 71.1864V130.818C60.697 132.627 61.9956 134.175 63.7767 134.489L106.019 141.943C106.235 141.981 106.451 142 106.667 142C107.536 142 108.386 141.696 109.063 141.128C109.907 140.42 110.394 139.375 110.394 138.273V137.5V134.546V130.818V127.091V74.9124V71.1851V67.4578V63.7273C110.394 62.6256 109.907 61.5803 109.062 60.8717ZM94.3938 106.121C93.7008 106.815 92.7389 107.212 91.7577 107.212C90.7762 107.212 89.8171 106.815 89.1212 106.121C88.4279 105.426 88.0304 104.467 88.0304 103.485C88.0304 102.503 88.4279 101.544 89.1212 100.849C89.8169 100.155 90.7761 99.7574 91.7577 99.7574C92.7389 99.7574 93.7008 100.155 94.3938 100.849C95.0871 101.544 95.485 102.503 95.485 103.485C95.4848 104.467 95.087 105.426 94.3938 106.121Z" fill="black"/>
<path d="M109.062 60.8717C108.218 60.1635 107.104 59.8648 106.019 60.057L63.7765 67.516C61.9954 67.8303 60.697 69.3779 60.697 71.1864V130.818C60.697 132.627 61.9956 134.175 63.7767 134.489L106.019 141.943C106.235 141.981 106.451 142 106.667 142C107.536 142 108.386 141.696 109.063 141.128C109.907 140.42 110.394 139.375 110.394 138.273V137.5V134.546V130.818V127.091V74.9124V71.1851V67.4578V63.7273C110.394 62.6256 109.907 61.5803 109.062 60.8717ZM94.3938 106.121C93.7008 106.815 92.7389 107.212 91.7577 107.212C90.7762 107.212 89.8171 106.815 89.1212 106.121C88.4279 105.426 88.0304 104.467 88.0304 103.485C88.0304 102.503 88.4279 101.544 89.1212 100.849C89.8169 100.155 90.7761 99.7574 91.7577 99.7574C92.7389 99.7574 93.7008 100.155 94.3938 100.849C95.0871 101.544 95.485 102.503 95.485 103.485C95.4848 104.467 95.087 105.426 94.3938 106.121Z" fill="url(#paint1_linear)"/>
<g style="mix-blend-mode:screen" opacity="0.5" filter="url(#filter0_f)">
<path fill-rule="evenodd" clip-rule="evenodd" d="M106.019 60.057C107.104 59.8648 108.218 60.1635 109.062 60.8717C109.907 61.5803 110.394 62.6256 110.394 63.7273V67.4578V71.1851V74.9124V127.091V130.818V134.546V137.5V138.273C110.394 139.375 109.907 140.42 109.063 141.128C108.386 141.696 107.536 142 106.667 142C106.451 142 106.235 141.981 106.019 141.943L63.7767 134.489C61.9956 134.175 60.697 132.627 60.697 130.818V71.1864C60.697 69.3779 61.9954 67.8303 63.7765 67.516L106.019 60.057ZM91.7577 107.212C92.7389 107.212 93.7008 106.815 94.3938 106.121C95.087 105.426 95.4848 104.467 95.485 103.485C95.485 102.503 95.0871 101.544 94.3938 100.849C93.7008 100.155 92.7389 99.7574 91.7577 99.7574C90.7761 99.7574 89.8169 100.155 89.1212 100.849C88.4279 101.544 88.0304 102.503 88.0304 103.485C88.0304 104.467 88.4279 105.426 89.1212 106.121C89.8171 106.815 90.7762 107.212 91.7577 107.212ZM121.576 67.4546C122.564 67.4546 123.512 67.8472 124.211 68.5459C124.91 69.245 125.303 70.1931 125.303 71.1819V130.818C125.303 132.877 123.634 134.546 121.576 134.546H117.848V130.818V127.091V74.9105V71.1832V67.4559L121.575 67.4546H121.576Z" fill="black"/>
<path fill-rule="evenodd" clip-rule="evenodd" d="M106.019 60.057C107.104 59.8648 108.218 60.1635 109.062 60.8717C109.907 61.5803 110.394 62.6256 110.394 63.7273V67.4578V71.1851V74.9124V127.091V130.818V134.546V137.5V138.273C110.394 139.375 109.907 140.42 109.063 141.128C108.386 141.696 107.536 142 106.667 142C106.451 142 106.235 141.981 106.019 141.943L63.7767 134.489C61.9956 134.175 60.697 132.627 60.697 130.818V71.1864C60.697 69.3779 61.9954 67.8303 63.7765 67.516L106.019 60.057ZM91.7577 107.212C92.7389 107.212 93.7008 106.815 94.3938 106.121C95.087 105.426 95.4848 104.467 95.485 103.485C95.485 102.503 95.0871 101.544 94.3938 100.849C93.7008 100.155 92.7389 99.7574 91.7577 99.7574C90.7761 99.7574 89.8169 100.155 89.1212 100.849C88.4279 101.544 88.0304 102.503 88.0304 103.485C88.0304 104.467 88.4279 105.426 89.1212 106.121C89.8171 106.815 90.7762 107.212 91.7577 107.212ZM121.576 67.4546C122.564 67.4546 123.512 67.8472 124.211 68.5459C124.91 69.245 125.303 70.1931 125.303 71.1819V130.818C125.303 132.877 123.634 134.546 121.576 134.546H117.848V130.818V127.091V74.9105V71.1832V67.4559L121.575 67.4546H121.576Z" fill="url(#paint2_linear)"/>
</g>
<defs>
<filter id="filter0_f" x="0.697021" y="-4.57764e-05" width="184.606" height="202" filterUnits="userSpaceOnUse" color-interpolation-filters="sRGB">
<feFlood flood-opacity="0" result="BackgroundImageFix"/>
<feBlend mode="normal" in="SourceGraphic" in2="BackgroundImageFix" result="shape"/>
<feGaussianBlur stdDeviation="30" result="effect1_foregroundBlur"/>
</filter>
<linearGradient id="paint0_linear" x1="119.39" y1="181.311" x2="160.624" y2="169.762" gradientUnits="userSpaceOnUse">
<stop stop-color="#42A9FD"/>
<stop offset="1" stop-color="#ACC5FC"/>
</linearGradient>
<linearGradient id="paint1_linear" x1="70.9716" y1="199.158" x2="159.895" y2="63.311" gradientUnits="userSpaceOnUse">
<stop stop-color="#42A9FD"/>
<stop offset="1" stop-color="#ACC5FC"/>
</linearGradient>
<linearGradient id="paint2_linear" x1="70.9716" y1="199.158" x2="159.895" y2="63.311" gradientUnits="userSpaceOnUse">
<stop stop-color="#42A9FD"/>
<stop offset="1" stop-color="#ACC5FC"/>
</linearGradient>
</defs>
</svg>
